<?xml version="1.0" encoding="UTF-8" standalone="no"?>
<!-- Created with Inkscape (http://www.inkscape.org/) -->

<svg
   xmlns:dc="http://purl.org/dc/elements/1.1/"
   xmlns:cc="http://creativecommons.org/ns#"
   xmlns:rdf="http://www.w3.org/1999/02/22-rdf-syntax-ns#"
   xmlns:svg="http://www.w3.org/2000/svg"
   xmlns="http://www.w3.org/2000/svg"
   xmlns:xlink="http://www.w3.org/1999/xlink"
   xmlns:sodipodi="http://sodipodi.sourceforge.net/DTD/sodipodi-0.dtd"
   xmlns:inkscape="http://www.inkscape.org/namespaces/inkscape"
   width="48"
   height="48"
   id="svg2"
   version="1.1"
   inkscape:version="0.47 r22583"
   sodipodi:docname="menu-icons.svg"
   inkscape:export-filename="/Users/sam/Documents/workspace-android/humidity/design/menu-icons.name.png"
   inkscape:export-xdpi="90"
   inkscape:export-ydpi="90">
  <defs
     id="defs4">
    <inkscape:perspective
       sodipodi:type="inkscape:persp3d"
       inkscape:vp_x="0 : 526.18109 : 1"
       inkscape:vp_y="0 : 1000 : 0"
       inkscape:vp_z="744.09448 : 526.18109 : 1"
       inkscape:persp3d-origin="372.04724 : 350.78739 : 1"
       id="perspective10" />
    <inkscape:perspective
       id="perspective3674"
       inkscape:persp3d-origin="0.5 : 0.33333333 : 1"
       inkscape:vp_z="1 : 0.5 : 1"
       inkscape:vp_y="0 : 1000 : 0"
       inkscape:vp_x="0 : 0.5 : 1"
       sodipodi:type="inkscape:persp3d" />
    <inkscape:perspective
       id="perspective3701"
       inkscape:persp3d-origin="0.5 : 0.33333333 : 1"
       inkscape:vp_z="1 : 0.5 : 1"
       inkscape:vp_y="0 : 1000 : 0"
       inkscape:vp_x="0 : 0.5 : 1"
       sodipodi:type="inkscape:persp3d" />
    <inkscape:perspective
       id="perspective3729"
       inkscape:persp3d-origin="0.5 : 0.33333333 : 1"
       inkscape:vp_z="1 : 0.5 : 1"
       inkscape:vp_y="0 : 1000 : 0"
       inkscape:vp_x="0 : 0.5 : 1"
       sodipodi:type="inkscape:persp3d" />
    <inkscape:perspective
       id="perspective3756"
       inkscape:persp3d-origin="0.5 : 0.33333333 : 1"
       inkscape:vp_z="1 : 0.5 : 1"
       inkscape:vp_y="0 : 1000 : 0"
       inkscape:vp_x="0 : 0.5 : 1"
       sodipodi:type="inkscape:persp3d" />
  </defs>
  <sodipodi:namedview
     id="base"
     pagecolor="#ffffff"
     bordercolor="#666666"
     borderopacity="1.0"
     inkscape:pageopacity="0.0"
     inkscape:pageshadow="2"
     inkscape:zoom="12.581818"
     inkscape:cx="4.3053262"
     inkscape:cy="21.785714"
     inkscape:document-units="px"
     inkscape:current-layer="layer7"
     showgrid="true"
     inkscape:window-width="1626"
     inkscape:window-height="989"
     inkscape:window-x="-4"
     inkscape:window-y="0"
     inkscape:window-maximized="0"
     showguides="true"
     inkscape:guide-bbox="true"
     guidecolor="#617300"
     guideopacity="0.49803922">
    <inkscape:grid
       type="xygrid"
       id="grid2852"
       empspacing="5"
       visible="true"
       enabled="true"
       snapvisiblegridlinesonly="true" />
    <sodipodi:guide
       orientation="0,1"
       position="12,42"
       id="guide2854" />
    <sodipodi:guide
       orientation="0,1"
       position="5,6"
       id="guide2856" />
    <sodipodi:guide
       orientation="1,0"
       position="6,16"
       id="guide2858" />
    <sodipodi:guide
       orientation="1,0"
       position="42,17"
       id="guide2860" />
    <sodipodi:guide
       orientation="1,0"
       position="24,27"
       id="guide3645" />
    <sodipodi:guide
       orientation="0,1"
       position="30,24"
       id="guide3647" />
  </sodipodi:namedview>
  <metadata
     id="metadata7">
    <rdf:RDF>
      <cc:Work
         rdf:about="">
        <dc:format>image/svg+xml</dc:format>
        <dc:type
           rdf:resource="http://purl.org/dc/dcmitype/StillImage" />
        <dc:title></dc:title>
      </cc:Work>
    </rdf:RDF>
  </metadata>
  <g
     inkscape:label="Dewpoint"
     inkscape:groupmode="layer"
     id="layer1"
     transform="translate(0,-1004.3622)"
     style="display:none">
    <path
       style="fill:#000000;fill-opacity:1;stroke:none"
       d="M 24,6 C 38,28 37,42 24,42 11,42 10,28 24,6"
       id="path2862"
       transform="translate(0,1004.3622)"
       sodipodi:nodetypes="ccc" />
  </g>
  <g
     inkscape:groupmode="layer"
     id="layer4"
     inkscape:label="Density"
     style="display:none">
    <path
       sodipodi:type="arc"
       style="fill:#000000;fill-opacity:1;stroke:none"
       id="path3847"
       sodipodi:cx="9"
       sodipodi:cy="9"
       sodipodi:rx="3"
       sodipodi:ry="3"
       d="M 12,9 A 3,3 0 1 1 6,9 3,3 0 1 1 12,9 z"
       transform="translate(30,17)" />
    <path
       sodipodi:type="arc"
       style="fill:#000000;fill-opacity:1;stroke:none"
       id="path3849"
       sodipodi:cx="22"
       sodipodi:cy="12"
       sodipodi:rx="6"
       sodipodi:ry="6"
       d="m 28,12 a 6,6 0 1 1 -12,0 6,6 0 1 1 12,0 z"
       transform="matrix(0.91666667,0,0,0.91666667,14.833333,25.5)" />
    <path
       sodipodi:type="arc"
       style="fill:#000000;fill-opacity:1;stroke:none"
       id="path3851"
       sodipodi:cx="15"
       sodipodi:cy="27"
       sodipodi:rx="9"
       sodipodi:ry="9"
       d="M 24,27 A 9,9 0 1 1 6,27 9,9 0 1 1 24,27 z"
       transform="matrix(0.83333333,0,0,0.83333333,1,3.5000001)" />
    <path
       transform="translate(1,30)"
       d="M 12,9 A 3,3 0 1 1 6,9 3,3 0 1 1 12,9 z"
       sodipodi:ry="3"
       sodipodi:rx="3"
       sodipodi:cy="9"
       sodipodi:cx="9"
       id="path3853"
       style="fill:#000000;fill-opacity:1;stroke:none"
       sodipodi:type="arc" />
    <path
       transform="scale(1.3333333,1.3333333)"
       d="M 12,9 A 3,3 0 1 1 6,9 3,3 0 1 1 12,9 z"
       sodipodi:ry="3"
       sodipodi:rx="3"
       sodipodi:cy="9"
       sodipodi:cx="9"
       id="path3855"
       style="fill:#000000;fill-opacity:1;stroke:none"
       sodipodi:type="arc" />
    <path
       transform="translate(14,1)"
       d="m 28,12 a 6,6 0 1 1 -12,0 6,6 0 1 1 12,0 z"
       sodipodi:ry="6"
       sodipodi:rx="6"
       sodipodi:cy="12"
       sodipodi:cx="22"
       id="path3857"
       style="fill:#000000;fill-opacity:1;stroke:none"
       sodipodi:type="arc" />
    <path
       sodipodi:type="arc"
       style="fill:#000000;fill-opacity:1;stroke:none"
       id="path3859"
       sodipodi:cx="9"
       sodipodi:cy="9"
       sodipodi:rx="3"
       sodipodi:ry="3"
       d="M 12,9 A 3,3 0 1 1 6,9 3,3 0 1 1 12,9 z"
       transform="matrix(1.3333333,0,0,1.3333333,16,12)" />
    <path
       transform="matrix(1.1666667,0,0,1.1666667,12.5,25)"
       d="M 12,9 A 3,3 0 1 1 6,9 3,3 0 1 1 12,9 z"
       sodipodi:ry="3"
       sodipodi:rx="3"
       sodipodi:cy="9"
       sodipodi:cx="9"
       id="path3861"
       style="fill:#000000;fill-opacity:1;stroke:none"
       sodipodi:type="arc" />
    <path
       sodipodi:type="arc"
       style="fill:#000000;fill-opacity:1;stroke:none"
       id="path3863"
       sodipodi:cx="9"
       sodipodi:cy="9"
       sodipodi:rx="3"
       sodipodi:ry="3"
       d="M 12,9 A 3,3 0 1 1 6,9 3,3 0 1 1 12,9 z"
       transform="matrix(1.5,0,0,1.5,10.5,-3)" />
  </g>
  <g
     inkscape:groupmode="layer"
     id="layer2"
     inkscape:label="Temp"
     style="display:none">
    <rect
       style="fill:#000000;fill-opacity:1;stroke:none"
       id="rect3651"
       width="4"
       height="7"
       x="22"
       y="6" />
    <image
       y="35"
       x="22"
       id="image3703"
       height="7"
       width="4"
       xlink:href="file:///Users/sam/Documents/workspace-android/fourletter/design/inkscape_pasted_image_20110305_184826.png" />
    <image
       y="6"
       x="-26"
       id="image3731"
       height="36"
       width="4"
       xlink:href="file:///Users/sam/Documents/workspace-android/fourletter/design/inkscape_pasted_image_20110305_184832.png"
       transform="matrix(0,-1,1,0,0,0)" />
    <image
       y="-1.9999998"
       x="15.94113"
       id="image3758"
       height="4"
       width="36"
       xlink:href="file:///Users/sam/Documents/workspace-android/fourletter/design/inkscape_pasted_image_20110305_184843.png"
       transform="matrix(0.70710678,0.70710678,-0.70710678,0.70710678,0,0)" />
    <image
       transform="matrix(-0.70710678,0.70710678,-0.70710678,-0.70710678,0,0)"
       xlink:href="file:///Users/sam/Documents/workspace-android/fourletter/design/inkscape_pasted_image_20110305_184843.png"
       width="36"
       height="4"
       id="image3789"
       x="-18"
       y="-35.941128" />
    <path
       sodipodi:type="arc"
       style="fill:#000000;fill-opacity:1;stroke:none"
       id="path3649"
       sodipodi:cx="24"
       sodipodi:cy="24"
       sodipodi:rx="8"
       sodipodi:ry="8"
       d="m 32,24 a 8,8 0 1 1 -16,0 8,8 0 1 1 16,0 z" />
  </g>
  <g
     inkscape:groupmode="layer"
     id="layer3"
     inkscape:label="humidity"
     style="display:none">
    <path
       style="fill:#000000;fill-opacity:1;stroke:none"
       d="m 6,8 c 9,-6 9,6 18,0 10,-6 10,6 18,0 l 0,6 C 33,20 33,8 24,14 15,20 15,8 6,14 L 6,8 z"
       id="path3813"
       sodipodi:nodetypes="ccccccc" />
    <path
       sodipodi:nodetypes="ccccccc"
       id="path3842"
       d="m 6,34 c 9,-6 9,6 18,0 10,-6 10,6 18,0 l 0,6 c -9,6 -9,-6 -18,0 -9,6 -9,-6 -18,0 l 0,-6 z"
       style="fill:#000000;fill-opacity:1;stroke:none" />
    <path
       style="fill:#000000;fill-opacity:1;stroke:none"
       d="m 6,21 c 9,-6 9,6 18,0 10,-6 10,6 18,0 l 0,6 c -9,6 -9,-6 -18,0 -9,6 -9,-6 -18,0 l 0,-6 z"
       id="path3844"
       sodipodi:nodetypes="ccccccc" />
  </g>
  <g
     inkscape:groupmode="layer"
     id="layer5"
     inkscape:label="Delete"
     style="display:none">
    <path
       sodipodi:type="arc"
       style="fill:#000000;fill-opacity:1;stroke:none"
       id="path2856"
       sodipodi:cx="24"
       sodipodi:cy="24"
       sodipodi:rx="18"
       sodipodi:ry="18"
       d="M 42,24 A 18,18 0 1 1 6,24 18,18 0 1 1 42,24 z" />
    <path
       sodipodi:type="arc"
       style="fill:#ffffff;fill-opacity:1;stroke:none"
       id="path2860"
       sodipodi:cx="2"
       sodipodi:cy="24"
       sodipodi:rx="12"
       sodipodi:ry="12"
       d="m 14,24 a 12,12 0 1 1 -24,0 12,12 0 1 1 24,0 z"
       transform="translate(22,0)" />
    <rect
       style="fill:#000000;fill-opacity:1;stroke:none"
       id="rect2866"
       width="28"
       height="6"
       x="-14"
       y="30.941126"
       transform="matrix(0.70710678,-0.70710678,0.70710678,0.70710678,0,0)" />
    <rect
       transform="matrix(-0.70710678,-0.70710678,0.70710678,-0.70710678,0,0)"
       y="-3"
       x="-47.941124"
       height="6"
       width="28"
       id="rect2868"
       style="fill:#000000;fill-opacity:1;stroke:none" />
  </g>
  <g
     inkscape:groupmode="layer"
     id="layer6"
     inkscape:label="Name"
     style="display:none">
    <rect
       style="fill:#000000;fill-opacity:1;stroke:none"
       id="rect2873"
       width="30.80761"
       height="10"
       x="-20.506096"
       y="28.991379"
       transform="matrix(0.70710678,-0.70710678,0.70710678,0.70710678,0,0)" />
  </g>
  <g
     inkscape:groupmode="layer"
     id="layer7"
     inkscape:label="Name 2"
     style="display:inline">
    <g
       id="g2896"
       transform="matrix(0.96592583,-0.25881905,0.25881905,0.96592583,-3.6447505,3.0770281)">
      <rect
         y="14"
         x="6"
         height="28"
         width="30"
         id="rect2878"
         style="fill:#000000;fill-opacity:1;stroke:none" />
      <rect
         y="18"
         x="10"
         height="20"
         width="22"
         id="rect2880"
         style="fill:#ffffff;fill-opacity:1;stroke:none" />
    </g>
    <path
       sodipodi:type="arc"
       style="fill:#000000;fill-opacity:1;stroke:none"
       id="path2876"
       sodipodi:cx="24"
       sodipodi:cy="11"
       sodipodi:rx="5"
       sodipodi:ry="5"
       d="m 29,11 a 5,5 0 1 1 -10,0 5,5 0 1 1 10,0 z"
       transform="matrix(1.2,0,0,1.2,-5.8,-1.2)" />
    <rect
       style="fill:#000000;fill-opacity:1;stroke:none"
       id="rect2900"
       width="9"
       height="4"
       x="12"
       y="-25"
       transform="matrix(0,1,-1,0,0,0)" />
  </g>
</svg>
